# AST/ASF file generated using VICON BodyLanguage
# -----------------------------------------------
:version 1.10
:name VICON
:units
  mass 1.0
  length 0.45
  angle deg
:documentation
   .ast/.asf automatically generated from VICON data using
   VICON BodyBuilder and BodyLanguage model FoxedUp or BRILLIANT.MOD
:root
   order TX TY TZ RX RY RZ
   axis XYZ
   position 0 0 0  
   orientation 0 0 0 
:bonedata
  begin
     id 1 
     name lhipjoint
     direction 0.612567 -0.751349 0.245431 
     length 2.42285 
     axis 0 0 0  XYZ
  end
  begin
     id 2 
     name lfemur
     direction 0.34202 -0.939693 0  
     length 7.11304  
     axis 0 0 20  XYZ
    dof rx ry rz
    limits (-160.0 20.0)
           (-70.0 70.0)
           (-60.0 70.0)
  end
  begin
     id 3 
     name ltibia
     direction 0.34202 -0.939693 0   
     length 7.84529   
     axis 0 0 20   XYZ
    dof rx
    limits (-10.0 170.0)
  end
  begin
     id 4 
     name lfoot
     direction 0.0779239 -0.214094 0.9737   
     length 1.97176   
     axis -90 7.62852e-016 20   XYZ
    dof rx rz
    limits (-45.0 90.0)
           (-70.0 20.0)
  end
  begin
     id 5 
     name ltoes
     direction 1.53565e-011 -4.21709e-011 1   
     length 0.993197   
     axis -90 7.62852e-016 20   XYZ
    dof rx
    limits (-90.0 20.0)
  end
  begin
     id 6 
     name rhipjoint
     direction -0.665722 -0.709315 0.231701   
     length 2.56642  
     axis 0 0 0  XYZ 
  end
  begin
     id 7 
     name rfemur
     direction -0.34202 -0.939693 0   
     length 7.32108   
     axis 0 0 -20   XYZ
    dof rx ry rz
    limits (-160.0 20.0)
           (-70.0 70.0)
           (-70.0 60.0)
  end
  begin
     id 8 
     name rtibia
     direction -0.34202 -0.939693 0   
     length 7.81254   
     axis 0 0 -20   XYZ
    dof rx
    limits (-10.0 170.0)
 end
 begin
     id 9 
     name rfoot
     direction -0.0832806 -0.228812 0.969902   
     length 2.08278  
     axis -90 -7.62852e-016 -20   XYZ
    dof rx rz
    limits (-45.0 90.0)
           (-20.0 70.0)
  end
  begin
     id 10 
     name rtoes
     direction -1.53589e-011 -4.22086e-011 1   
     length 1.04609   
     axis -90 -7.62852e-016 -20   XYZ
    dof rx
    limits (-90.0 20.0)
  end
  begin
     id 11 
     name lowerback
     direction -0.00506013 0.988403 -0.151766   
     length 2.01978   
     axis 0 0 0   XYZ
    dof rx ry rz
    limits (-20.0 45.0)
           (-30.0 30.0)
           (-30.0 30.0)
  end
  begin
     id 12 
     name upperback
     direction -0.00836389 0.99968 0.0238859   
     length 2.01276   
     axis 0 0 0   XYZ
    dof rx ry rz
    limits (-20.0 45.0)
           (-30.0 30.0)
           (-30.0 30.0)
  end
  begin
     id 13 
     name thorax
     direction -0.00684136 0.995386 0.0957043   
     length 2.07303   
     axis 0 0 0   XYZ
    dof rx ry rz
    limits (-20.0 45.0)
           (-30.0 30.0)
           (-30.0 30.0)
  end
  begin
     id 14 
     name lowerneck
     direction -0.0161045 0.999661 0.0204485   
     length 1.91243   
     axis 0 0 0   XYZ
    dof rx ry rz
    limits (-20.0 45.0)
           (-30.0 30.0)
           (-30.0 30.0)
  end
  begin
     id 15 
     name upperneck
     direction 0.0553583 0.990946 -0.122319   
     length 1.91574   
     axis 0 0 0   XYZ
    dof rx ry rz
    limits (-20.0 45.0)
           (-30.0 30.0)
           (-30.0 30.0)
  end
  begin
     id 16
     name head
     direction 0.0180273 0.998839 -0.0446756  
     length 1.92693  
     axis 0 0 0   XYZ
    dof rx ry rz
    limits (-20.0 45.0)
           (-30.0 30.0)
           (-30.0 30.0)
  end
  begin
     id 17 
     name lclavicle
     direction 0.945646 0.319323 -0.0615358  
     length 4.0076  
     axis 0 0 0   XYZ
    dof ry rz
    limits (-20.0 10.0)
           (0.0 20.0)
  end
  begin
     id 18 
     name lhumerus
     direction 1 -4.48967e-011 -2.79996e-027   
     length 5.64147   
     axis 180 -30 -90   XYZ
    dof rx ry rz
    limits (-60.0 90.0)
           (-90.0 90.0)
           (-90.0 90.0)
  end
  begin
     id 19
     name lradius
     direction 1 -4.48976e-011 -9.5122e-027   
     length 2.86444   
     axis 180 -30 -90   XYZ
    dof rx
    limits (-10.0 170.0)
  end
  begin
     id 20
     name lwrist
     direction 1 -4.48983e-011 -1.24047e-026   
     length 1.43222   
     axis 9.05591e-015 90 90   XYZ
    dof ry
    limits (-180.0 0.0)
 end
  begin
     id 21 
     name lhand
     direction 1 -4.4892e-011 -2.48094e-026   
     length 0.722123   
     axis 1.58305e-014 90 90   XYZ
    dof rx rz
    limits (-90.0 90.0)
           (-45.0 45.0)
  end
  begin
     id 22 
     name lfingers
     direction 1 -4.48895e-011 -4.96187e-026   
     length 0.582194   
     axis 3.1661e-014 90 90   XYZ
    dof rx
    limits (0.0 90.0)
  end
  begin
     id 23
     name lthumb
     direction 0.707107 -6.34961e-011 0.707107   
     length 0.835918   
     axis -90 45 2.85299e-015   XYZ
    dof rx rz
    limits (-45.0 45.0)
           (-45.0 45.0)
  end
  begin
     id 24 
     name rclavicle
     direction -0.932635 0.324218 -0.15835   
     length 3.65819  
     axis 0 0 0   XYZ 
    dof ry rz
    limits (-10.0 20.0)
           (-20.0 0.0)
  end
  begin
     id 25 
     name rhumerus
     direction -1 -4.48965e-011 -4.02296e-027  
     length 5.44729   
     axis 180 30 90   XYZ
    dof rx ry rz
    limits (-90.0 60.0)
           (-90.0 90.0)
           (-90.0 90.0)
  end
  begin
     id 26 
     name rradius
     direction -1 -4.48957e-011 -8.81087e-027   
     length 3.08821   
     axis 180 30 90   XYZ
    dof rx
    limits (-10.0 170.0)
  end
  begin
     id 27 
     name rwrist
     direction -1 -4.49015e-011 -1.24047e-026   
     length 1.5441   
     axis 9.05591e-015 -90 -90   XYZ
    dof ry
    limits (-180.0 0.0)
  end
  begin
     id 28
     name rhand
     direction -1 -4.4891e-011 -2.48094e-026   
     length 0.821049   
     axis 1.58305e-014 -90 -90   XYZ
    dof rx rz
    limits (-90.0 90.0)
           (-45.0 45.0)
  end
  begin
     id 29
     name rfingers
     direction -1 -4.48985e-011 -4.96187e-026   
     length 0.661951   
     axis 3.1661e-014 -90 -90   XYZ
    dof rx
    limits (0.0 90.0)
  end
  begin
     id 30
     name rthumb
     direction -0.707107 -6.34906e-011 0.707107   
     length 0.950433   
     axis -90 -45 -2.85299e-015   XYZ
    dof rx rz
    limits (-45.0 45.0)
           (-45.0 45.0)
  end
:hierarchy
  begin
    root lhipjoint rhipjoint lowerback
    lhipjoint lfemur
    lfemur ltibia
    ltibia lfoot
    lfoot ltoes
    rhipjoint rfemur
    rfemur rtibia
    rtibia rfoot
    rfoot rtoes
    lowerback upperback
    upperback thorax
    thorax lowerneck lclavicle rclavicle
    lowerneck upperneck
    upperneck head
    lclavicle lhumerus
    lhumerus lradius
    lradius lwrist
    lwrist lhand lthumb
    lhand lfingers
    rclavicle rhumerus
    rhumerus rradius
    rradius rwrist
    rwrist rhand rthumb
    rhand rfingers
  end

#!OML:ASF F:\VICON\USERDATA\INSTALL\rory3\rory3.ASF
:FULLY-SPECIFIED
:DEGREES
3531
root 2.78347 17.7052 -0.0386289 -704.616 95.3385 -705.942
lowerback 7.81907 -0.171477 1.79826
upperback -2.77005 -0.1396 -1.64611
thorax -7.31683 -0.190008 -2.72609
lowerneck -7.22987 1.24687 -1.9871
upperneck 12.9726 1.11239 7.38562
head 5.02294 0.998785 2.70247
rclavicle 1.20637e-014 3.97569e-015
rhumerus -44.9973 10.7437 -89.966
rradius 52.0016
rwrist 13.3651
rhand -10.4167 9.07949
rfingers 7.12502
rthumb 15.5824 -20.3128
lclavicle 1.20637e-014 3.97569e-015
lhumerus -4.46337 -29.54 71.8732
lradius 115.462
lwrist 60.6827
lhand 12.6899 19.5514
lfingers 7.12502
lthumb 37.673 45.4389
rfemur -0.765725 0.858817 19.131
rtibia 12.9034
rfoot -18.0595 -7.69357
rtoes -4.54717
lfemur -5.16333 0.524797 -16.2952
ltibia 14.9533
lfoot -10.8562 -4.48673
ltoes 2.86167
3532
root 2.79533 17.7082 -0.0366914 -706.082 95.6583 -707.522
lowerback 7.57652 -0.173202 1.60626
upperback -2.8888 -0.170279 -1.76313
thorax -7.30504 -0.198868 -2.73661
lowerneck -7.37926 1.11152 -2.09329
upperneck 13.5145 0.901846 7.57488
head 5.22418 0.921323 2.77779
rclavicle -1.46728e-014 4.77083e-015
rhumerus -45.0308 10.1087 -89.8008
rradius 50.8398
rwrist 13.5227
rhand -9.38152 9.05169
rfingers 7.12502
rthumb 16.5792 -20.2601
lclavicle -1.46728e-014 4.77083e-015
lhumerus -1.92158 -28.4384 70.2447
lradius 116.127
lwrist 62.7984
lhand 13.2067 19.5176
lfingers 7.12502
lthumb 38.161 45.2729
rfemur -0.661271 0.6905 19.0742
rtibia 12.6697
rfoot -18.1339 -7.7772
rtoes -4.46207
lfemur -5.25783 0.355668 -16.3605
ltibia 14.8574
lfoot -10.7514 -4.66021
ltoes 3.2048
3533
root 2.80447 17.7103 -0.0349888 -705.579 95.9998 -707.125
lowerback 7.40834 -0.188049 1.57139
upperback -3.05591 -0.19601 -1.79779
thorax -7.38804 -0.212425 -2.75067
lowerneck -7.54127 0.989173 -2.20948
upperneck 14.1365 0.713533 7.71125
head 5.45279 0.853429 2.84122
rclavicle 3.80176e-015 8.74653e-015
rhumerus -45.0632 9.41296 -89.5023
rradius 49.6269
rwrist 14.3033
rhand -8.5928 9.00188
rfingers 7.12502
rthumb 17.3384 -20.2448
lclavicle 3.80176e-015 8.74653e-015
lhumerus 0.443906 -27.2756 68.8517
lradius 116.696
lwrist 64.5612
lhand 13.339 19.4177
lfingers 7.12502
lthumb 38.2859 45.1385
rfemur -0.5856 0.507811 19.2238
rtibia 12.4635
rfoot -18.1909 -7.87115
rtoes -4.39393
lfemur -5.37864 0.208127 -16.2149
ltibia 14.789
lfoot -10.6354 -4.81561
ltoes 3.39237
3534
root 2.81378 17.7121 -0.0328955 -705.813 96.3112 -707.414
lowerback 7.31894 -0.214052 1.43436
upperback -3.23464 -0.246701 -1.83945
thorax -7.53 -0.233957 -2.71169
lowerneck -7.57327 0.907312 -2.25472
upperneck 14.6817 0.583572 7.78687
head 5.63404 0.810324 2.8748
rclavicle 1.50082e-014 2.3059e-014
rhumerus -45.1714 8.92103 -89.2904
rradius 48.4864
rwrist 14.8701
rhand -9.07316 8.87184
rfingers 7.12502
rthumb 16.876 -20.4149
lclavicle 1.50082e-014 2.3059e-014
lhumerus 2.70258 -25.9152 67.6152
lradius 117.132
lwrist 65.9913
lhand 13.609 19.5223
lfingers 7.12502
lthumb 38.5407 45.1723
rfemur -0.472269 0.45433 19.2983
rtibia 12.2962
rfoot -18.3196 -8.15627
rtoes -4.25855
lfemur -5.44335 0.0897721 -16.1553
ltibia 14.7424
lfoot -10.5424 -4.98995
ltoes 3.36499
3535
root 2.82322 17.7138 -0.030348 -706.708 96.6444 -708.387
lowerback 7.24465 -0.250448 1.22722
upperback -3.4357 -0.320909 -1.92922
thorax -7.70601 -0.264505 -2.68121
lowerneck -7.59247 0.831086 -2.26938
upperneck 15.239 0.454483 7.88671
head 5.81772 0.772401 2.91142
rclavicle 3.23025e-016 -2.62396e-014
rhumerus -45.3818 8.54683 -89.2467
rradius 47.4042
rwrist 15.0505
rhand -9.49043 8.73471
rfingers 7.12502
rthumb 16.4743 -20.5858
lclavicle 3.23025e-016 -2.62396e-014
lhumerus 5.09533 -24.3928 66.3808
lradius 117.425
lwrist 67.3465
lhand 13.9873 20.1115
lfingers 7.12502
lthumb 38.8975 45.6608
rfemur -0.385505 0.371157 19.2864
rtibia 12.1638
rfoot -18.4745 -8.39005
rtoes -4.02563
lfemur -5.55559 0.0944913 -16.1742
ltibia 14.713
lfoot -10.392 -5.32649
ltoes 3.26751
3536
root 2.83174 17.7142 -0.0303887 -707.504 96.9748 -709.269
lowerback 7.1543 -0.308195 1.06337
upperback -3.622 -0.41997 -2.03187
thorax -7.85895 -0.308806 -2.68534
lowerneck -7.69617 0.763028 -2.31692
upperneck 15.8568 0.332678 8.02138
head 6.03536 0.742423 2.96768
rclavicle -9.14409e-015 -3.18055e-014
rhumerus -45.5185 8.10865 -89.1233
rradius 46.3165
rwrist 15.7652
rhand -8.96594 8.90847
rfingers 7.12502
rthumb 16.9792 -20.3694
lclavicle -9.14409e-015 -3.18055e-014
lhumerus 7.46642 -22.8191 65.2208
lradius 117.694
lwrist 68.3483
lhand 14.3558 20.6943
lfingers 7.12502
lthumb 39.2449 46.1437
rfemur -0.35492 0.119905 19.2482
rtibia 12.0715
rfoot -18.4969 -8.49081
rtoes -4.26675
lfemur -5.67858 0.131432 -16.2037
ltibia 14.6761
lfoot -10.229 -5.71148
ltoes 3.64775
3537
root 2.8391 17.7133 -0.0312293 -708.507 97.2767 -710.332
lowerback 7.05997 -0.351413 0.891894
upperback -3.74493 -0.500189 -2.13232
thorax -7.94025 -0.342064 -2.68493
lowerneck -7.85203 0.692777 -2.36616
upperneck 16.4414 0.21516 8.10385
head 6.25297 0.710268 3.00809
rclavicle 7.95139e-015 -7.95139e-016
rhumerus -45.563 7.50786 -88.7966
rradius 45.4274
rwrist 16.9172
rhand -8.24289 9.14199
rfingers 7.12502
rthumb 17.6751 -20.0746
lclavicle 7.95139e-015 -7.95139e-016
lhumerus 9.86501 -21.323 64.1996
lradius 117.946
lwrist 68.7358
lhand 14.5062 20.9798
lfingers 7.12502
lthumb 39.3867 46.388
rfemur -0.322818 -0.10969 19.1636
rtibia 12.0366
rfoot -18.564 -8.48692
rtoes -4.08926
lfemur -5.75228 0.127384 -16.2738
ltibia 14.6276
lfoot -10.0536 -6.02449
ltoes 4.09561
